<svg height="50" viewBox="0 0 50 50" width="50" xmlns="http://www.w3.org/2000/svg"><path d="m45.914 23.605c-.126-.955-.941-1.669-1.904-1.669h-2.831l-2.835-7.342c-.853-2.208-2.976-3.665-5.343-3.665h-15.816c-2.367 0-4.491 1.456-5.343 3.665l-2.835 7.342h-2.831c-.964 0-1.778.714-1.904 1.669l-.173 1.308c-.05.375.203.724.575.794l3.121.591v16.842c0 .561.455 1.016 1.016 1.016h2.451c.527 0 .978-.38 1.066-.9l.832-4.879h23.866l.833 4.879c.089.52.539.9 1.066.9h2.451c.561 0 1.016-.455 1.016-1.016v-16.842l3.121-.591c.372-.07.624-.419.575-.794l-.173-1.308zm-30.281-8.136c.16-.414.558-.688 1.003-.688h16.914c.444 0 .843.273 1.003.688l3.134 8.118h-25.188zm-3.144 16.677c-1.409 0-2.552-1.142-2.552-2.552s1.142-2.552 2.552-2.552 2.552 1.142 2.552 2.552-1.142 2.552-2.552 2.552zm18.539.624c0 1.247-1.011 2.259-2.259 2.259h-7.59c-1.247 0-2.259-1.011-2.259-2.259v-1.181c0-.494.4-.894.894-.894h10.32c.494 0 .894.4.894.894zm6.432-.624c-1.409 0-2.552-1.142-2.552-2.552s1.142-2.552 2.552-2.552 2.552 1.142 2.552 2.552-1.142 2.552-2.552 2.552z" fill="#ef6a00"/></svg>