<?xml version="1.0" encoding="UTF-8"?>
<svg id="Layer_1" data-name="Layer 1" xmlns="http://www.w3.org/2000/svg" width="50" height="50" viewBox="0 0 50 50">
  <defs>
    <style>
      .cls-1 {
        fill: #ef6a00;
      }
    </style>
  </defs>
  <path class="cls-1" d="m47.684,14.816l-27.79-7.797c-1.616-.476-3.312.447-3.788,2.063-.004.012-.007.024-.011.037l-1.499,5.498-1.4,4.998H3.199C1.467,19.58.035,20.957,0,22.689c0,.008,0,.017,0,.025v17.294c.009,1.708,1.391,3.09,3.099,3.099h28.99c1.708-.009,3.09-1.391,3.099-3.099v-4.299l1,.3,5.198,1.499c1.616.476,3.312-.447,3.788-2.063.004-.012.007-.024.011-.037l4.698-16.594c.468-1.708-.506-3.479-2.199-3.999Zm-30.989,1.899l.9-2.999c.136-.422.563-.678,1-.6l4.998,1.4c.422.136.678.563.6,1l-.9,2.999c-.136.422-.563.678-1,.6l-4.998-1.4c-.422-.136-.678-.563-.6-1Zm16.594,23.292c-.013.712-.587,1.287-1.3,1.3H2.999c-.712-.013-1.287-.587-1.3-1.3v-11.296h31.589v11.296Zm0-15.795H1.799v-1.4c.013-.712.587-1.287,1.3-1.3h28.99c.712.013,1.287.587,1.3,1.3l-.1,1.4Zm10.596,5.698l-8.797-2.499v-2.399l9.397,2.599-.6,2.299Zm-24.192.8H3.699v3.399h15.994v-3.399Z"/>
</svg>