<svg height="50" viewBox="0 0 50 50" width="50" xmlns="http://www.w3.org/2000/svg"><path d="m48.687 18.839c.801-.2 1.202.1 1.302-.1s-.501-1.102-2.304-.701c-1.03.145-1.964.684-2.605 1.503 0 0-1.002.301-1.603.501-.488.189-.958.424-1.403.701-.522-1.153-1.196-2.231-2.004-3.206 0 0-3.707-4.809-9.317-6.011-3.775-.699-7.646-.699-11.421 0-.511-.714-1.081-1.384-1.703-2.004-.93-1.107-2.266-1.793-3.707-1.903-.2.1-1.102 6.011-1.102 6.011-1.354.677-2.524 1.675-3.406 2.905-1.403 2.004-1.703 3.907-1.903 3.907-.519-.232-1.021-.5-1.503-.801-.701-.401-1.302-1.102-2.004-1.202s-1.503 1.102-1.503 1.102-.902 1.703-1.403 3.005-1.399 4.107-.998 4.608 1.302.601 3.106 1.403c1.803.701 1.403 1.202 1.403 1.202s-.902.801-.902 1.202c-.1.401-.1.501.401 1.102.733.63 1.584 1.107 2.504 1.403 0 0 1.603 2.004 2.504 3.005s2.905 2.805 2.905 2.805c-.263.427-.434.905-.501 1.403-.061.533-.061 1.07 0 1.603h10.018c.2 0 .401-.501.401-.501h4.208s.1.601.2.601h10.319c2.836-2.461 5.006-5.596 6.311-9.116.989-3.598 1.058-7.388.2-11.02l.701-.401v.501c0 1.66 1.346 3.005 3.005 3.005s3.005-1.346 3.005-3.005c-.008-1.383-.959-2.582-2.304-2.905-.2.1.301-.501 1.102-.601zm-15.428-2.605c-1.903-.734-3.888-1.239-5.911-1.503-1.938-.161-3.888-.094-5.81.2-.443-.055-.757-.459-.701-.902.055-.443.459-.757.902-.701 1.948-.376 3.942-.444 5.911-.2 1.991.26 3.943.765 5.81 1.503.424.086.722.469.701.902-.038.429-.417.746-.847.708-.018-.002-.037-.004-.055-.007zm14.827 6.311c0 .775-.628 1.403-1.403 1.403s-1.403-.628-1.403-1.403.628-1.403 1.403-1.403c.756-.018 1.384.579 1.403 1.336z" fill="#f58025"/></svg>