<?xml version="1.0" encoding="utf-8"?>
<!-- Generator: Adobe Illustrator 25.1.0, SVG Export Plug-In . SVG Version: 6.00 Build 0)  -->
<svg version="1.1" id="Low_Cash_mode" xmlns="http://www.w3.org/2000/svg" xmlns:xlink="http://www.w3.org/1999/xlink" x="0px"
	 y="0px" width="219px" height="220px" viewBox="0 0 219 220" style="enable-background:new 0 0 219 220;" xml:space="preserve">
<style type="text/css">
	.st0{fill:#F1F1F1;}
	.st1{fill:#F2F2F2;stroke:#3B404A;stroke-width:3.0084;stroke-miterlimit:10;}
	.st2{fill:#1DA0F0;stroke:#3B404A;stroke-width:4.0149;stroke-miterlimit:10;}
	.st3{fill:#FFFFFF;}
	.st4{fill:#C7EFFF;}
	.st5{fill:none;stroke:#3B404A;stroke-width:3.3533;stroke-linecap:round;stroke-linejoin:round;stroke-miterlimit:10;}
	.st6{fill:#3B404A;}
	.st7{fill:#F8A72C;}
	.st8{fill:#51555B;}
</style>
<circle class="st0" cx="110" cy="110" r="100"/>
<circle class="st1" cx="52.24" cy="172.78" r="22.72"/>
<g>
	<circle class="st2" cx="103.79" cy="81.21" r="21.98"/>
	<g>
		<path class="st3" d="M101.93,167.39v13.45h26.79l2.19-54.9h-0.44v-14.65h-2.52v14.55h-3.83v-14.55h1.86
			c-0.77-3.61-3.17-6.34-7.55-6.34c-2.3,0-4.37,0.98-5.8,2.52v12.91h-3.72v-14.55h1.86V80.89c0-4.05-3.39-7.22-7.66-7.33h-0.33
			c-4.27,0.11-7.66,3.28-7.66,7.33v35.76v15.53v-15.53c-5.8,1.64-8.2,6.67-9.19,11.05v10.5C87.93,148.04,94.16,161.27,101.93,167.39
			z"/>
	</g>
	<g>
		<g>
			<path class="st4" d="M149.28,116.43c-1.97,0-3.72,0.66-5.03,1.86v12.69h-3.83v-14.55h1.75c-0.55-3.17-1.64-5.25-3.5-6.34
				l-1.42-0.66c-0.77-0.22-1.53-0.44-2.52-0.44c-2.41,0-4.59,1.09-6.02,2.73h0.33v14.55h-1.75v54.9h18.59v-12.69
				c6.67-3.17,11.16-10.72,11.16-17.61v-27.34C156.83,119.71,153.44,116.43,149.28,116.43z"/>
		</g>
		<g>
			<g>
				<path class="st5" d="M95.8,117.09c-8.42,2.3-9.73,12.03-9.73,16.19c0,9.62,7.11,27.23,16.4,34.56v13.45h42.87V168.6
					c6.67-3.17,11.16-10.72,11.16-17.61v-27.34c0-3.94-3.39-7.11-7.55-7.11c-3.06,0-5.69,1.64-6.89,4.16
					c0-7.98-2.52-11.59-7.76-11.59c-3.61,0-6.56,2.3-7.44,5.36c0-4.81-2.52-8.97-7.76-8.97c-3.83,0-7.11,2.62-7.66,6.12V81.43
					c0-4.05-3.5-7.33-7.76-7.33s-7.76,3.28-7.76,7.33v51.29"/>
			</g>
			<rect x="124.68" y="111.73" class="st6" width="3.83" height="14.55"/>
			<rect x="139.99" y="116.43" class="st6" width="3.83" height="14.55"/>
			<rect x="109.58" y="106.26" class="st6" width="3.72" height="14.55"/>
		</g>
	</g>
	<g>
		<g>
			<path class="st7" d="M106.85,54.2c-0.44-0.66-0.66-1.42-0.55-2.19l2.41-16.3c0.22-1.64,1.75-2.73,3.39-2.52
				c1.64,0.22,2.73,1.75,2.52,3.39l-2.41,16.19c-0.22,1.64-1.75,2.73-3.39,2.52C107.94,55.29,107.29,54.75,106.85,54.2z"/>
		</g>
		<g>
			<path class="st7" d="M82.24,60.11l-9.73-13.12c-0.98-1.31-0.66-3.17,0.66-4.16c1.31-0.98,3.17-0.66,4.16,0.66l9.73,13.12
				c0.98,1.31,0.66,3.17-0.66,4.16C85.2,61.75,83.23,61.42,82.24,60.11z"/>
		</g>
		<g>
			<path class="st7" d="M52.82,79.24c-0.44-0.66-0.66-1.42-0.55-2.19c0.22-1.64,1.75-2.73,3.39-2.52l16.19,2.41
				c1.64,0.22,2.73,1.75,2.52,3.39c-0.22,1.64-1.75,2.73-3.39,2.52l-16.19-2.41C54.03,80.23,53.37,79.79,52.82,79.24z"/>
		</g>
		<g>
			<path class="st7" d="M61.79,115.99c-0.98-1.31-0.66-3.17,0.66-4.16l13.12-9.73c1.31-0.98,3.17-0.66,4.16,0.66
				c0.98,1.31,0.66,3.17-0.66,4.16l-13.12,9.73C64.64,117.63,62.78,117.3,61.79,115.99z"/>
		</g>
		<g>
			<path class="st7" d="M134.3,91.93c-0.44-0.66-0.66-1.42-0.55-2.19c0.22-1.64,1.75-2.73,3.39-2.52l16.19,2.41
				c1.64,0.22,2.73,1.75,2.52,3.39c-0.22,1.64-1.75,2.73-3.39,2.52l-16.19-2.41C135.5,93.02,134.74,92.59,134.3,91.93z"/>
		</g>
		<g>
			<path class="st7" d="M128.4,67.43c-0.98-1.31-0.66-3.17,0.66-4.16l13.12-9.73c1.31-0.98,3.17-0.66,4.16,0.66
				c0.98,1.31,0.66,3.17-0.66,4.16l-13.12,9.73C131.24,68.96,129.38,68.75,128.4,67.43z"/>
		</g>
	</g>
</g>
<g>
	<path class="st7" d="M60.8,163.28l-2.96,2.8c-1.09-1.09-2.65-1.56-4.05-1.56v5.76c3.58,0.62,4.67,1.09,5.76,2.02
		c1.25,1.25,1.87,2.96,1.87,4.98c0,4.05-3.11,6.54-7.16,7v3.74h-3.42v-3.58c-3.11-0.16-5.6-0.93-7.78-3.11l2.96-2.96
		c1.4,1.4,3.27,2.02,5.29,2.02v-6.07c-2.8-0.16-4.51-1.09-5.6-2.18c-1.09-1.09-1.71-2.65-1.71-4.67c0-3.89,2.65-6.54,7-7v-2.96h3.42
		v2.96C57.06,160.64,59.09,161.41,60.8,163.28z M48.5,167.33c0,0.62,0.16,1.25,0.62,1.71c0.47,0.47,1.25,0.78,2.18,0.93v-5.6
		C49.44,164.68,48.5,165.93,48.5,167.33z M56.75,177.45c0-0.78-0.16-1.56-0.78-2.02c-0.62-0.62-1.25-0.78-2.33-0.78v5.6
		C55.66,179.94,56.75,179,56.75,177.45z"/>
</g>
<g>
	<path class="st8" d="M191.09,85.3l-2.81,2.62c-0.94-0.94-2.43-1.31-3.74-1.5v5.43c3.37,0.56,4.3,0.94,5.43,1.87
		c1.12,1.12,1.68,2.81,1.68,4.68c0,3.74-2.81,6.18-6.74,6.55v3.56h-3.18v-3.37c-2.99,0-5.24-0.94-7.3-2.99l2.81-2.81
		c1.31,1.31,2.99,1.87,5.05,1.87v-5.61c-2.62-0.19-4.3-0.94-5.24-2.06c-1.12-0.94-1.5-2.43-1.5-4.3c0-3.56,2.43-6.18,6.36-6.74
		v-2.81h3.18v2.81C187.54,82.86,189.41,83.61,191.09,85.3z M179.49,89.23c0,0.56,0.19,1.12,0.56,1.5c0.56,0.37,1.12,0.75,2.06,0.94
		v-5.24C180.43,86.79,179.49,87.92,179.49,89.23z M187.35,98.58c0-0.75-0.19-1.31-0.75-1.87c-0.56-0.56-1.31-0.56-2.25-0.75v5.24
		C186.41,101.01,187.35,100.08,187.35,98.58z"/>
</g>
</svg>
