<?xml version="1.0" encoding="utf-8"?>
<!-- Generator: Adobe Illustrator 24.0.0, SVG Export Plug-In . SVG Version: 6.00 Build 0)  -->
<svg version="1.1" id="Layer_1" xmlns="http://www.w3.org/2000/svg" xmlns:xlink="http://www.w3.org/1999/xlink" x="0px" y="0px"
	 width="152px" height="50px" viewBox="0 0 152 50" style="enable-background:new 0 0 152 50;" xml:space="preserve">
<style type="text/css">
	.st0{display:none;}
	.st1{display:inline;}
	.st2{fill:#A6A6A6;}
	.st3{fill:#FFFFFF;stroke:#FFFFFF;stroke-width:0.2;stroke-miterlimit:10;}
	.st4{fill:#FFFFFF;}
	.st5{fill:url(#SVGID_1_);}
	.st6{fill:url(#SVGID_2_);}
	.st7{fill:url(#SVGID_3_);}
	.st8{fill:url(#SVGID_4_);}
	.st9{opacity:0.2;enable-background:new    ;}
	.st10{opacity:0.12;enable-background:new    ;}
	.st11{opacity:0.25;fill:#FFFFFF;enable-background:new    ;}
</style>
<g id="Layer_1_1_" class="st0">
	<g class="st1">
		<g>
			<g>
				<path d="M144.8,3.9H7.2C4.6,3.9,2.6,6,2.6,8.5v33c0,2.5,2.1,4.6,4.6,4.6h137.5c2.6,0,4.6-2.1,4.6-4.6v-33
					C149.4,5.9,147.3,3.9,144.8,3.9z"/>
			</g>
			<path class="st2" d="M144.8,47H7.2c-3,0-5.5-2.5-5.5-5.5l0,0c0,3,2.5,5.5,5.5,5.5H144.8c3,0,5.5-2.5,5.5-5.5l0,0
				C150.2,44.5,147.8,47,144.8,47z"/>
			<path class="st2" d="M144.8,3H7.2c-3,0-5.5,2.5-5.5,5.5v33c0,3,2.5,5.5,5.5,5.5h137.5c3,0,5.5-2.5,5.5-5.5v-33
				C150.2,5.5,147.8,3,144.8,3z M149.4,41.5c0,2.5-2.1,4.6-4.6,4.6H7.2c-2.6,0-4.6-2.1-4.6-4.6v-33c0-2.6,2.1-4.6,4.6-4.6h137.5
				c2.6,0,4.6,2.1,4.6,4.6L149.4,41.5L149.4,41.5z"/>
		</g>
		<g>
			<path class="st3" d="M53.9,14.3c0,0.9-0.3,1.7-0.8,2.2c-0.6,0.6-1.4,1-2.4,1s-1.8-0.3-2.4-1c-0.7-0.7-1-1.5-1-2.5s0.3-1.8,1-2.5
				s1.5-1,2.4-1c0.5,0,0.9,0.1,1.3,0.3c0.4,0.2,0.8,0.4,1,0.7l-0.6,0.6c-0.4-0.5-1-0.8-1.8-0.8c-0.7,0-1.3,0.2-1.8,0.7
				S48,13.1,48,13.9s0.2,1.4,0.8,1.9s1.1,0.7,1.8,0.7s1.3-0.2,1.8-0.7c0.3-0.3,0.5-0.8,0.5-1.3h-2.4v-0.8h3.2
				C53.9,13.9,53.9,14.1,53.9,14.3z"/>
			<path class="st3" d="M59,11.5h-3v2.1h2.7v0.8H56v2.1h3v0.8h-3.8v-6.6H59V11.5z"/>
			<path class="st3" d="M62.6,17.3h-0.8v-5.8H60v-0.8h4.5v0.8h-1.8L62.6,17.3L62.6,17.3z"/>
			<path class="st3" d="M67.7,17.3v-6.6h0.8v6.6H67.7z"/>
			<path class="st3" d="M72.3,17.3h-0.8v-5.8h-1.8v-0.8h4.5v0.8h-1.8L72.3,17.3L72.3,17.3z"/>
			<path class="st3" d="M82.7,16.5c-0.7,0.7-1.5,1-2.4,1s-1.8-0.3-2.4-1s-1-1.5-1-2.4s0.3-1.8,1-2.4s1.4-1,2.4-1s1.8,0.3,2.4,1
				c0.7,0.7,1,1.5,1,2.4S83.4,15.8,82.7,16.5z M78.5,15.9c0.5,0.5,1.1,0.7,1.8,0.7c0.7,0,1.3-0.2,1.8-0.7c0.5-0.5,0.7-1.1,0.7-1.9
				s-0.2-1.4-0.7-1.9s-1.1-0.7-1.8-0.7c-0.7,0-1.3,0.2-1.8,0.7s-0.7,1.1-0.7,1.9S78,15.4,78.5,15.9z"/>
			<path class="st3" d="M84.9,17.3v-6.6h1l3.2,5.1l0,0v-1.3v-3.9H90v6.6h-0.9l-3.4-5.4l0,0v1.3v4.1h-0.8V17.3z"/>
		</g>
		<path class="st4" d="M76.7,26.9c-2.6,0-4.7,2-4.7,4.7s2.1,4.7,4.7,4.7s4.7-2,4.7-4.7C81.4,28.9,79.3,26.9,76.7,26.9z M76.7,34.4
			c-1.4,0-2.6-1.2-2.6-2.8c0-1.7,1.2-2.8,2.6-2.8s2.6,1.1,2.6,2.8C79.3,33.3,78.1,34.4,76.7,34.4z M66.4,26.9c-2.6,0-4.7,2-4.7,4.7
			s2.1,4.7,4.7,4.7c2.6,0,4.7-2,4.7-4.7C71.2,28.9,69,26.9,66.4,26.9z M66.4,34.4c-1.4,0-2.6-1.2-2.6-2.8c0-1.7,1.2-2.8,2.6-2.8
			s2.6,1.1,2.6,2.8C69.1,33.3,67.9,34.4,66.4,34.4z M54.3,28.4v2H59c-0.1,1.1-0.5,1.9-1.1,2.5c-0.7,0.7-1.8,1.5-3.7,1.5
			c-2.9,0-5.2-2.4-5.2-5.3s2.3-5.3,5.2-5.3c1.6,0,2.7,0.6,3.6,1.4l1.4-1.4c-1.2-1.1-2.8-2-5-2c-4,0-7.4,3.3-7.4,7.3s3.4,7.3,7.4,7.3
			c2.2,0,3.8-0.7,5.1-2s1.7-3.1,1.7-4.6c0-0.5,0-0.9-0.1-1.2L54.3,28.4L54.3,28.4z M104.1,29.9c-0.4-1-1.6-3-4-3s-4.4,1.9-4.4,4.7
			c0,2.6,2,4.7,4.6,4.7c2.1,0,3.4-1.3,3.9-2.1l-1.6-1.1c-0.5,0.8-1.3,1.3-2.3,1.3c-1.1,0-1.8-0.5-2.3-1.4l6.3-2.6L104.1,29.9z
			 M97.7,31.5c-0.1-1.8,1.4-2.7,2.4-2.7c0.8,0,1.5,0.4,1.7,1L97.7,31.5z M92.6,36h2.1V22.2h-2.1V36z M89.3,28L89.3,28
			c-0.5-0.5-1.4-1-2.5-1c-2.3,0-4.5,2.1-4.5,4.7s2.1,4.7,4.5,4.7c1.1,0,2-0.5,2.5-1.1h0.1V36c0,1.8-1,2.8-2.5,2.8
			c-1.3,0-2-0.9-2.4-1.7l-1.8,0.7c0.5,1.2,1.9,2.8,4.2,2.8c2.4,0,4.4-1.4,4.4-4.9v-8.4h-1.9L89.3,28L89.3,28z M86.9,34.4
			c-1.4,0-2.6-1.2-2.6-2.8c0-1.6,1.2-2.9,2.6-2.9s2.5,1.2,2.5,2.9C89.4,33.2,88.3,34.4,86.9,34.4z M113.7,22.2h-4.9V36h2.1v-5.2h2.9
			c2.3,0,4.5-1.6,4.5-4.3S116,22.2,113.7,22.2z M113.8,28.9h-2.9v-4.7h2.9c1.5,0,2.4,1.3,2.4,2.4C116.2,27.6,115.3,28.9,113.8,28.9z
			 M126.5,26.9c-1.5,0-3,0.6-3.7,2.1l1.8,0.8c0.4-0.8,1.1-1,1.9-1c1.1,0,2.1,0.6,2.2,1.8v0.1c-0.4-0.2-1.2-0.5-2.1-0.5
			c-2,0-4,1.1-4,3.1c0,1.8,1.6,3,3.4,3c1.4,0,2.1-0.6,2.6-1.3h0.1v1h2v-5.3C130.6,28.3,128.8,26.9,126.5,26.9z M126.2,34.4
			c-0.7,0-1.6-0.3-1.6-1.2c0-1.1,1.2-1.5,2.2-1.5c0.9,0,1.3,0.2,1.9,0.5C128.5,33.5,127.4,34.4,126.2,34.4z M137.9,27.2l-2.4,6h-0.1
			l-2.4-6h-2.2l3.7,8.3l-2.1,4.6h2.1l5.6-13C140.1,27.2,137.9,27.2,137.9,27.2z M119.4,36h2.1V22.2h-2.1V36z"/>
		<g>
			
				<linearGradient id="SVGID_1_" gradientUnits="userSpaceOnUse" x1="25.7245" y1="42.4244" x2="7.2638" y2="23.9638" gradientTransform="matrix(1 0 0 -1 0 55)">
				<stop  offset="0" style="stop-color:#00A0FF"/>
				<stop  offset="6.574450e-03" style="stop-color:#00A1FF"/>
				<stop  offset="0.2601" style="stop-color:#00BEFF"/>
				<stop  offset="0.5122" style="stop-color:#00D2FF"/>
				<stop  offset="0.7604" style="stop-color:#00DFFF"/>
				<stop  offset="1" style="stop-color:#00E3FF"/>
			</linearGradient>
			<path class="st5" d="M13.2,11.3c-0.3,0.3-0.5,0.9-0.5,1.6v24.3c0,0.7,0.2,1.2,0.5,1.5l0.1,0.1l13.6-13.6V25v-0.2L13.2,11.3
				L13.2,11.3z"/>
			
				<linearGradient id="SVGID_2_" gradientUnits="userSpaceOnUse" x1="38.9677" y1="30" x2="12.3511" y2="30" gradientTransform="matrix(1 0 0 -1 0 55)">
				<stop  offset="0" style="stop-color:#FFE000"/>
				<stop  offset="0.4087" style="stop-color:#FFBD00"/>
				<stop  offset="0.7754" style="stop-color:#FFA500"/>
				<stop  offset="1" style="stop-color:#FF9C00"/>
			</linearGradient>
			<path class="st6" d="M31.5,29.7L27,25.2V25v-0.2l4.5-4.5l0.1,0.1l5.4,3.1c1.5,0.9,1.5,2.3,0,3.2L31.5,29.7L31.5,29.7z"/>
			
				<linearGradient id="SVGID_3_" gradientUnits="userSpaceOnUse" x1="29.0419" y1="27.4919" x2="4.0078" y2="2.4578" gradientTransform="matrix(1 0 0 -1 0 55)">
				<stop  offset="0" style="stop-color:#FF3A44"/>
				<stop  offset="1" style="stop-color:#C31162"/>
			</linearGradient>
			<path class="st7" d="M31.6,29.6L26.9,25L13.2,38.7c0.5,0.5,1.3,0.6,2.3,0.1L31.6,29.6"/>
			
				<linearGradient id="SVGID_4_" gradientUnits="userSpaceOnUse" x1="9.7355" y1="51.7647" x2="20.9142" y2="40.5859" gradientTransform="matrix(1 0 0 -1 0 55)">
				<stop  offset="0" style="stop-color:#32A071"/>
				<stop  offset="6.850000e-02" style="stop-color:#2DA771"/>
				<stop  offset="0.4762" style="stop-color:#15CF74"/>
				<stop  offset="0.8009" style="stop-color:#06E775"/>
				<stop  offset="1" style="stop-color:#00F076"/>
			</linearGradient>
			<path class="st8" d="M31.6,20.4l-16.1-9.1c-0.9-0.5-1.8-0.5-2.3,0.1L26.9,25L31.6,20.4z"/>
			<g>
				<path class="st9" d="M31.5,29.5l-16,9.1c-0.9,0.5-1.7,0.5-2.2,0l0,0l-0.1,0.1l0,0l0.1,0.1l0,0c0.5,0.5,1.3,0.5,2.2,0l16.1-9.1
					L31.5,29.5z"/>
				<path class="st10" d="M13.2,38.5c-0.3-0.3-0.5-0.9-0.5-1.5v0.2c0,0.7,0.2,1.2,0.5,1.5V38.5L13.2,38.5z"/>
			</g>
			<path class="st10" d="M37,26.4l-5.5,3.1l0.1,0.1l5.4-3.1c0.8-0.4,1.2-1,1.2-1.6l0,0C38,25.5,37.7,26,37,26.4z"/>
			<path class="st11" d="M15.5,11.4L37,23.6c0.7,0.4,1.1,0.9,1.2,1.4l0,0c0-0.6-0.4-1.1-1.2-1.6L15.5,11.2c-1.5-0.9-2.8-0.1-2.8,1.6
				V13C12.7,11.2,14,10.5,15.5,11.4z"/>
		</g>
	</g>
</g>
<g>
	<path class="st2" d="M144.9,47.9H7.1c-3.6,0-6.5-2.9-6.5-6.5V8.6c0-3.6,2.9-6.5,6.5-6.5H145c3.6,0,6.5,2.9,6.5,6.5v32.7
		C151.4,44.9,148.5,47.9,144.9,47.9z"/>
	<path d="M144.4,46.9H7.6c-3.3,0-6-2.7-6-6V9.1c0-3.3,2.7-6,6-6h136.8c3.3,0,6,2.7,6,6v31.8C150.4,44.2,147.7,46.9,144.4,46.9z"/>
	<g>
		<g>
			<g id="_Group__1_">
				<g id="_Group_2_1_">
					<g id="_Group_3_1_">
						<path id="_Path__1_" class="st4" d="M32.8,24.2c0-2.1,1.1-4,2.9-5.1c-1.1-1.6-3-2.6-4.9-2.7c-2.1-0.2-4.1,1.2-5.2,1.2
							c-1.1,0-2.7-1.2-4.5-1.2c-2.3,0.1-4.4,1.4-5.5,3.4C13.2,23.9,15,30,17.3,33.4c1.2,1.6,2.5,3.5,4.2,3.4s2.4-1.1,4.4-1.1
							s2.7,1.1,4.4,1.1c1.8,0,3-1.7,4.1-3.3c0.8-1.2,1.5-2.5,1.9-3.8C34.2,28.7,32.8,26.6,32.8,24.2z"/>
						<path id="_Path_2_1_" class="st4" d="M29.4,14.2c1-1.2,1.5-2.8,1.4-4.3c-1.5,0.2-3,0.9-4,2.1c-1,1.1-1.5,2.6-1.4,4.2
							C26.9,16.1,28.4,15.4,29.4,14.2z"/>
					</g>
				</g>
				<g>
					<path class="st4" d="M54.4,32.6h-5.8l-1.4,4.2h-2.5l5.5-15.4h2.6l5.5,15.4h-2.5L54.4,32.6z M49.2,30.7h4.6L51.5,24h-0.1
						L49.2,30.7z"/>
					<path class="st4" d="M70.4,31.2c0,3.5-1.9,5.7-4.7,5.7c-1.5,0.1-2.8-0.7-3.5-2l0,0v5.6h-2.3V25.6h2.2v1.9l0,0
						c0.7-1.3,2.1-2,3.6-2C68.5,25.5,70.4,27.7,70.4,31.2z M68,31.2c0-2.3-1.2-3.8-3-3.8c-1.8,0-2.9,1.5-2.9,3.8S63.3,35,65,35
						C66.8,35,68,33.5,68,31.2z"/>
					<path class="st4" d="M82.7,31.2c0,3.5-1.9,5.7-4.7,5.7c-1.4,0.1-2.8-0.7-3.5-2h-0.1v5.6h-2.3V25.6h2.2v1.9l0,0
						c0.7-1.3,2.1-2,3.6-2C80.8,25.5,82.7,27.7,82.7,31.2z M80.3,31.2c0-2.3-1.2-3.8-3-3.8c-1.8,0-2.9,1.5-2.9,3.8s1.2,3.8,2.9,3.8
						C79.1,35,80.3,33.5,80.3,31.2L80.3,31.2z"/>
					<path class="st4" d="M90.8,32.5C91,34,92.4,35,94.5,35c1.9,0,3.3-1,3.3-2.4c0-1.2-0.8-1.9-2.8-2.4l-2-0.5
						c-2.8-0.7-4.1-2-4.1-4.1c0-2.7,2.3-4.5,5.6-4.5c3.3,0,5.5,1.8,5.5,4.5h-2.3c-0.1-1.5-1.4-2.4-3.3-2.4s-3.1,0.9-3.1,2.3
						c0,1.1,0.8,1.7,2.8,2.2l1.7,0.4c3.2,0.8,4.5,2,4.5,4.3c0,2.9-2.3,4.7-5.9,4.7c-3.4,0-5.7-1.8-5.8-4.5L90.8,32.5L90.8,32.5z"/>
					<path class="st4" d="M105.2,23v2.7h2.1v1.8h-2.1v6.2c0,1,0.4,1.4,1.4,1.4c0.2,0,0.5,0,0.8-0.1v1.8c-0.4,0.1-0.9,0.1-1.3,0.1
						c-2.3,0-3.1-0.8-3.1-3v-6.4h-1.6v-1.8h1.6V23H105.2z"/>
					<path class="st4" d="M108.6,31.2c0-3.5,2.1-5.7,5.3-5.7s5.3,2.2,5.3,5.7s-2,5.7-5.3,5.7C110.6,36.9,108.6,34.7,108.6,31.2z
						 M116.9,31.2c0-2.4-1.1-3.8-3-3.8s-3,1.4-3,3.8s1.1,3.8,3,3.8S116.9,33.6,116.9,31.2L116.9,31.2z"/>
					<path class="st4" d="M121.1,25.6h2.2v1.9l0,0c0.3-1.2,1.4-2.1,2.7-2c0.3,0,0.5,0,0.8,0.1v2.2c-0.3-0.1-0.7-0.2-1-0.1
						c-1.3-0.1-2.4,0.9-2.4,2.2c0,0.1,0,0.2,0,0.4v6.6h-2.3V25.6z"/>
					<path class="st4" d="M137.4,33.5c-0.3,2-2.3,3.4-4.8,3.4c-3.3,0-5.3-2.2-5.3-5.7s2-5.8,5.2-5.8c3.1,0,5,2.1,5,5.5v0.8h-7.9v0.1
						c-0.1,1.6,1,3,2.7,3.2c0.1,0,0.2,0,0.4,0c1.1,0.1,2.2-0.5,2.6-1.6L137.4,33.5z M129.6,30.2h5.6c0.1-1.5-1-2.8-2.5-2.8
						c-0.1,0-0.1,0-0.2,0C130.9,27.3,129.7,28.6,129.6,30.2C129.6,30.1,129.6,30.2,129.6,30.2z"/>
				</g>
			</g>
		</g>
		<g id="_Group_4_1_">
			<g>
				<path class="st4" d="M48.9,9.9c1.8-0.1,3.4,1.2,3.5,3c0,0.2,0,0.4,0,0.6c0,2.4-1.3,3.7-3.5,3.7h-2.7V9.8L48.9,9.9L48.9,9.9z
					 M47.4,16.2h1.4c1.3,0.1,2.4-0.9,2.5-2.2c0-0.2,0-0.3,0-0.5c0.2-1.3-0.7-2.4-2-2.6c-0.2,0-0.3,0-0.5,0h-1.4V16.2L47.4,16.2z"/>
				<path class="st4" d="M53.7,14.5c-0.1-1.4,0.9-2.7,2.4-2.9c1.5-0.1,2.7,0.9,2.9,2.4c0,0.2,0,0.3,0,0.5c0.1,1.4-0.9,2.7-2.4,2.9
					c-1.5,0.1-2.7-0.9-2.9-2.4C53.7,14.8,53.7,14.6,53.7,14.5z M57.8,14.5c0-1.2-0.5-1.9-1.5-1.9s-1.5,0.7-1.5,1.9
					c0,1.2,0.5,1.9,1.5,1.9C57.3,16.4,57.8,15.7,57.8,14.5L57.8,14.5z"/>
				<path class="st4" d="M65.9,17.3h-1.1l-1.2-4.1h-0.1l-1.1,4.1h-1.1l-1.5-5.6h1.1l1,4.2H62l1.1-4.2h1l1.1,4.2h0.1l1-4.2h1.1
					L65.9,17.3z"/>
				<path class="st4" d="M68.7,11.7h1.1v0.9h0.1c0.3-0.7,1-1.1,1.7-1c1-0.1,1.9,0.7,1.9,1.7c0,0.1,0,0.3,0,0.4v3.6h-1.1V14
					c0-0.9-0.4-1.3-1.2-1.3c-0.7,0-1.3,0.5-1.3,1.2c0,0.1,0,0.1,0,0.2v3.3h-1.1L68.7,11.7z"/>
				<path class="st4" d="M75.2,9.5h1.1v7.7h-1.1V9.5z"/>
				<path class="st4" d="M77.8,14.5c-0.1-1.4,0.9-2.7,2.4-2.9c1.4-0.1,2.7,0.9,2.9,2.4c0,0.2,0,0.3,0,0.5c0.1,1.4-0.9,2.7-2.4,2.9
					S78,16.5,77.8,15C77.8,14.8,77.8,14.6,77.8,14.5z M82,14.5c0-1.2-0.5-1.9-1.5-1.9S79,13.3,79,14.5c0,1.2,0.5,1.9,1.5,1.9
					C81.4,16.4,82,15.7,82,14.5z"/>
				<path class="st4" d="M84.3,15.7c0-1,0.8-1.6,2.1-1.7l1.5-0.1v-0.5c0-0.6-0.4-0.9-1.1-0.9c-0.6,0-1,0.2-1.2,0.6h-1.1
					c0.1-1,1-1.6,2.3-1.6c1.4,0,2.2,0.7,2.2,1.9v3.8h-1.1v-0.8h-0.1c-0.4,0.6-1,0.9-1.7,0.9c-0.9,0.1-1.7-0.6-1.9-1.5
					C84.3,15.8,84.3,15.7,84.3,15.7z M87.8,15.2v-0.5l-1.4,0.1c-0.8,0.1-1.1,0.3-1.1,0.8s0.4,0.8,1,0.8C87.1,16.5,87.8,16,87.8,15.2
					L87.8,15.2z"/>
				<path class="st4" d="M90.4,14.5c0-1.8,0.9-2.9,2.3-2.9c0.7,0,1.4,0.3,1.7,1h0.1V9.5h1.1v7.7h-1v-0.9h-0.2c-0.4,0.6-1,1-1.8,1
					C91.3,17.4,90.4,16.2,90.4,14.5z M91.5,14.5c0,1.2,0.6,1.9,1.5,1.9s1.5-0.7,1.5-1.9c0-1.2-0.6-1.9-1.5-1.9S91.5,13.3,91.5,14.5
					L91.5,14.5z"/>
				<path class="st4" d="M100.1,14.5c-0.1-1.4,0.9-2.7,2.4-2.9s2.7,0.9,2.9,2.4c0,0.2,0,0.3,0,0.5c0.1,1.4-0.9,2.7-2.4,2.9
					s-2.7-0.9-2.9-2.4C100.1,14.8,100.1,14.6,100.1,14.5z M104.2,14.5c0-1.2-0.5-1.9-1.5-1.9s-1.5,0.7-1.5,1.9
					c0,1.2,0.5,1.9,1.5,1.9C103.7,16.4,104.2,15.7,104.2,14.5z"/>
				<path class="st4" d="M106.8,11.7h1.1v0.9h0.1c0.3-0.7,1-1.1,1.7-1c1-0.1,1.9,0.7,1.9,1.7c0,0.1,0,0.3,0,0.4v3.6h-1.1V14
					c0-0.9-0.4-1.3-1.2-1.3c-0.7,0-1.3,0.5-1.3,1.2c0,0.1,0,0.1,0,0.2v3.3h-1.1C106.8,17.3,106.8,11.7,106.8,11.7z"/>
				<path class="st4" d="M117.8,10.3v1.4h1.2v0.9h-1.2v2.9c0,0.6,0.2,0.8,0.8,0.8c0.1,0,0.3,0,0.4,0v0.9c-0.2,0-0.4,0.1-0.6,0.1
					c-1.2,0-1.7-0.4-1.7-1.5v-3.2h-0.9v-0.9h0.9v-1.4H117.8z"/>
				<path class="st4" d="M120.5,9.5h1.1v3.1h0.1c0.3-0.7,1-1.1,1.7-1c1-0.1,1.9,0.7,1.9,1.7c0,0.1,0,0.2,0,0.3v3.6h-1.1v-3.3
					c0-0.9-0.4-1.3-1.2-1.3c-0.7-0.1-1.3,0.5-1.4,1.2c0,0.1,0,0.2,0,0.2v3.2h-1.1V9.5z"/>
				<path class="st4" d="M131.7,15.8c-0.3,1.1-1.3,1.7-2.4,1.6c-1.4,0-2.6-1.1-2.6-2.5c0-0.1,0-0.3,0-0.4c-0.2-1.4,0.8-2.7,2.2-2.9
					c0.1,0,0.2,0,0.4,0c1.5,0,2.5,1.1,2.5,2.8v0.4h-3.9v0.1c-0.1,0.8,0.5,1.5,1.3,1.6h0.1c0.5,0.1,1.1-0.2,1.3-0.7H131.7z M127.8,14
					h2.8c0-0.7-0.5-1.4-1.2-1.4h-0.1C128.5,12.5,127.8,13.1,127.8,14C127.8,13.9,127.8,13.9,127.8,14L127.8,14z"/>
			</g>
		</g>
	</g>
</g>
</svg>
