<?xml version="1.0" encoding="UTF-8"?>
<svg id="Layer_1" data-name="Layer 1" xmlns="http://www.w3.org/2000/svg" width="50" height="50" viewBox="0 0 50 50">
  <defs>
    <style>
      .cls-1 {
        fill: #f58025;
      }
    </style>
  </defs>
  <path class="cls-1" d="M42.108,39.209l4.517-2.891-6.81-1.377,.401-1.435c2.071-4.283,2.434-9.578,1.552-14.562C40.325,11.305,35.334,1.572,26.838,.158,18.141-1.289,11.89,7.481,9.425,14.66c-1.97,5.737-2.547,13.414,.406,19.017l.353,1.263-6.81,1.377,4.518,2.891-4.518,2.892,6.81,1.377-1.016,3.631,7.277-.507,2.76,3.398,5.794-2.255,5.794,2.255,2.76-3.398,7.277,.507-1.016-3.631,6.81-1.377-4.517-2.892Zm-4.674-6.548c-3.534,7.218-13.756,8.411-20.241,4.571-7.495-4.439-7.535-14.616-4.898-21.997C14.969,7.748,22.698-1.199,30.957,5.129c7.785,5.966,10.589,18.738,6.477,27.531Z"/>
  <path class="cls-1" d="M22.115,17.221c0,.467,.148,.91,.516,1.254,.393,.343,.934,.589,1.647,.687v-4.105c-1.451,.197-2.163,1.082-2.163,2.164Zm4.302,12.51v2.753h-2.508v-2.655c-2.213-.068-3.972-.613-5.48-2.02-.164-.153-.165-.422-.006-.581l1.656-1.656c.149-.149,.381-.144,.541-.007,.999,.859,2.287,1.17,3.657,1.216v-4.449c-2.065-.148-3.392-.763-4.203-1.573-.837-.812-1.254-1.966-1.254-3.416,0-2.852,1.892-4.891,5.087-5.261v-2.211h2.508v2.187c1.857,.113,3.276,.644,4.525,1.726,.175,.151,.181,.424,.017,.586l-1.472,1.455c-.28,.276-.504,.275-.666,.148-.79-.614-1.828-.876-2.748-.941v4.277c2.63,.393,3.465,.737,4.276,1.499,.935,.885,1.377,2.162,1.377,3.712,0,2.998-2.211,4.842-5.309,5.211Zm-.344-7.202v4.203c1.474-.196,2.286-.934,2.286-2.137,0-.59-.172-1.107-.54-1.451-.467-.442-.984-.515-1.745-.614Z"/>
</svg>