<svg height="50" viewBox="0 0 50 50" width="50" xmlns="http://www.w3.org/2000/svg"><path d="m22 15.92c-5.029 0-9.08 4.051-9.08 9.08s4.051 9.08 9.08 9.08 9.08-4.051 9.08-9.08-4.051-9.08-9.08-9.08zm4.351 12.807-.091.484c-.093.459-1.678 1.321-2.574 1.152-.539-.102-2.451-.653-4.362-3.449s-1.728-4.775-1.627-5.315c.168-.897 1.547-2.06 2.006-1.98l.487.092c.263.05.464.264.496.529l.266 2.188c.028.227-.073.451-.262.58l-.853.583c-.076.052-.108.149-.078.236.261.732.618 1.427 1.062 2.065.434.645.951 1.23 1.538 1.74.07.06.172.065.248.013l.903-.617c.158-.108.362-.119.531-.029l1.996 1.073c.236.126.364.391.314.654zm20.988-15.49c-.428-.96-1.693-1.192-2.437-.448-.444.445-.55 1.114-.295 1.688 1.473 3.309 2.235 6.895 2.232 10.525.003 3.63-.758 7.216-2.231 10.526-.255.574-.149 1.242.295 1.687.743.743 2.009.512 2.437-.448 3.332-7.486 3.332-16.043 0-23.529zm-6.427 3.543c-.498.413-.753 1.081-.531 1.7 1.416 4.213 1.416 8.778 0 12.991-.044.131-.068.264-.078.398-.017.413.126.82.428 1.121l.181.181c.771.564 1.899.284 2.265-.621.961-2.809 1.331-5.742 1.231-8.685-.146-2.19-.504-4.364-1.231-6.465-.366-.905-1.494-1.185-2.265-.621zm-6.646-16.78h-24.532c-1.933 0-3.5 1.567-3.5 3.5v43c0 1.933 1.567 3.5 3.5 3.5h24.532c1.933 0 3.5-1.567 3.5-3.5v-43c0-1.933-1.567-3.5-3.5-3.5zm0 45c0 .828-.672 1.5-1.5 1.5h-21.532c-.828 0-1.5-.672-1.5-1.5v-40c0-.828.672-1.5 1.5-1.5h4.156l1.328 1.645c.38.47.952.743 1.556.743h7.065c.551 0 1.078-.227 1.456-.628l1.658-1.76h4.313c.828 0 1.5.672 1.5 1.5z" fill="#fff"/></svg>