<svg height="50" viewBox="0 0 50 50" width="50" xmlns="http://www.w3.org/2000/svg"><path d="m21.517 32.319h5.555v5.556h-5.555zm28.483-5.291-1.675 1.672h-2.646v13.937h-41.534v-13.937h-2.47l-1.675-1.672 14.374-13.4h9.788l3.175-3.174 3.086-3.087 3.087 3.083 5.379 5.379v-1.676h5.555v7.231zm-35.185 2.028h-8.554v11.552h8.639v-11.552zm28.836-2.381-13.4-13.227-.088.088-5.82 5.644-7.5 7.5v13.84h14.55v-10.32h7.407v10.32h4.85zm-13.404-6.875a3.087 3.087 0 1 0 3.086 3.087 3.067 3.067 0 0 0 -3.086-3.087z" fill="#f58025"/></svg>