<svg height="50" viewBox="0 0 50 50" width="50" xmlns="http://www.w3.org/2000/svg"><g fill="#fff"><path d="m4.155 45.238a3.842 3.842 0 0 0 2.409 1.613 3.842 3.842 0 0 1 -2.409-1.613z"/><path d="m41.792 44.049a2.273 2.273 0 0 0 1.615-.669 2.273 2.273 0 0 1 -1.615.669z"/><path d="m8.208 44.049a2.273 2.273 0 0 1 -1.615-.669 2.273 2.273 0 0 0 1.615.669z"/><path d="m45.376 45.805a3.824 3.824 0 0 1 -1.94 1.046 3.824 3.824 0 0 0 1.94-1.046z"/><path d="m45.376 6.253a3.826 3.826 0 0 0 -2.713-1.124h-.923v2.728a2.393 2.393 0 0 1 -2.386 2.386h-1.021a2.393 2.393 0 0 1 -2.386-2.386v-2.728h-21.894v2.728a2.393 2.393 0 0 1 -2.386 2.386h-1.021a2.393 2.393 0 0 1 -2.386-2.386v-2.728h-.923a3.836 3.836 0 0 0 -3.837 3.837v34.126a3.833 3.833 0 0 0 3.837 3.837h35.326a3.826 3.826 0 0 0 2.713-1.124 3.821 3.821 0 0 0 1.124-2.713v-34.126a3.822 3.822 0 0 0 -1.124-2.713zm-1.3 35.512a2.284 2.284 0 0 1 -2.284 2.284h-33.584a2.284 2.284 0 0 1 -2.284-2.284v-27.787h38.152z"/><rect height="4.019" rx="1.066" width="5.021" x="9.427" y="16.632"/><rect height="4.019" rx="1.066" width="5.021" x="35.552" y="16.632"/><rect height="4.019" rx="1.066" width="5.021" x="18.135" y="16.632"/><rect height="4.019" rx="1.066" width="5.021" x="26.844" y="16.632"/><rect height="4.019" rx="1.066" width="5.021" x="9.427" y="36.982"/><rect height="4.019" rx="1.066" width="5.021" x="18.135" y="36.982"/><rect height="4.019" rx="1.066" width="5.021" x="26.844" y="36.982"/><rect height="4.019" rx="1.066" width="5.021" x="9.427" y="23.416"/><rect height="4.019" rx="1.066" width="5.021" x="35.552" y="23.416"/><rect height="4.019" rx="1.066" width="5.021" x="18.135" y="23.416"/><rect height="4.019" rx="1.066" width="5.021" x="26.844" y="23.416"/><rect height="4.019" rx="1.066" width="5.021" x="9.427" y="30.199"/><rect height="4.019" rx="1.066" width="5.021" x="35.552" y="30.199"/><rect height="4.019" rx="1.066" width="5.021" x="18.135" y="30.199"/><rect height="4.019" rx="1.066" width="5.021" x="26.844" y="30.199"/><rect height="5.658" rx="1.237" width="2.475" x="37.589" y="3.071"/><rect height="5.658" rx="1.237" width="2.475" x="9.936" y="3.071"/></g></svg>