<svg height="50" viewBox="0 0 50 50" width="50" xmlns="http://www.w3.org/2000/svg"><path d="m43.2 8.606a3.023 3.023 0 0 0 -2.66-1.586h-39.329a1.21 1.21 0 0 0 -1.064 1.788l6.69 12.35v17.719a4.1 4.1 0 0 0 4.1 4.1h34.963a4.1 4.1 0 0 0 4.1-4.1v-17.719zm3.742 30.794h-37.048v-17.393h37.048zm-24.742-1.625h11.026v-1.762h-11.026zm12.672 0h11.028v-1.762h-11.024zm-23.243 0h8.441v-1.762h-8.437zm6.494-13.793h-6.575v1.762h6.579zm18.777 4.011h-25.352v1.762h25.36zm8.643-4.011h-9.153v1.762h9.161zm-8.635 8.018h-25.36v1.762h25.36z" fill="#f58025"/></svg>