<svg height="85" viewBox="0 0 72 85" width="72" xmlns="http://www.w3.org/2000/svg"><path d="m36.25 0-34.948 22.363v8.051h5.492v27.193h58.579v-27.552h5.325v-7.335zm22.3 50.629h-44.767v-27.551l22.133-14.491 22.633 14.491v27.551zm-34.282-6.798h23.798v-6.977h-23.798zm.333-10.018h23.798v-6.977h-23.799v6.977zm12.415 35.802v-9.325h-1.522v3.565h-1.776v-3.565h-1.522v9.325h1.522v-4.14h1.776v4.14zm-23.791-9.325v6.504c0 .627.067 1.136.201 1.528s.313.694.539.908c.225.213.483.355.771.424.289.069.588.105.899.105s.609-.039.898-.118.546-.231.771-.457c.226-.226.405-.533.539-.921.134-.387.201-.877.201-1.469v-6.504h-1.522v6.504c0 .235-.012.451-.037.647s-.071.366-.138.509c-.067.144-.157.257-.269.34-.113.083-.261.124-.444.124-.176 0-.322-.041-.439-.124s-.208-.196-.275-.34c-.067-.143-.113-.313-.137-.509-.025-.196-.037-.411-.037-.647v-6.504h-1.522zm11.594 0v9.325h4.217v-1.541h-2.695v-7.783h-1.522zm-2.494 0h-1.881l-1.998 9.325h1.585l.349-1.972h2.008l.349 1.972h1.585l-1.998-9.325zm-1.68 5.812.729-4.192h.021l.729 4.192h-1.48zm26.444.692c0 .235-.012.451-.037.647s-.071.366-.138.509c-.067.144-.157.257-.27.34s-.26.124-.444.124c-.176 0-.322-.041-.438-.124s-.208-.196-.275-.34c-.067-.143-.112-.313-.137-.509s-.037-.411-.037-.647v-6.504h-1.522v6.504c0 .627.067 1.136.201 1.528s.314.694.539.908c.225.213.482.355.771.424s.588.105.898.105.609-.039.899-.118c.288-.078.546-.231.771-.457.226-.226.405-.533.539-.921.133-.387.201-.877.201-1.469v-6.504h-1.522v6.504zm-8.001 2.625c.338.226.792.34 1.364.34s1.025-.113 1.363-.34.598-.553.777-.98c.18-.426.296-.936.349-1.528.052-.592.079-1.245.079-1.959 0-.705-.027-1.356-.079-1.952-.053-.596-.17-1.108-.349-1.534s-.438-.76-.777-.999c-.338-.24-.792-.359-1.363-.359s-1.025.12-1.364.359c-.338.239-.597.572-.777.999s-.296.938-.349 1.534c-.053.597-.079 1.247-.079 1.952 0 .714.027 1.367.079 1.959.053.592.169 1.101.349 1.528s.438.753.777.98zm.354-6.06c.025-.435.074-.792.148-1.071s.18-.481.317-.607c.138-.126.319-.189.545-.189s.406.063.544.189.243.329.317.607c.074.279.123.635.148 1.071.025.435.038.966.038 1.593s-.013 1.16-.038 1.6-.073.797-.148 1.071c-.074.274-.18.475-.317.601-.138.126-.319.189-.544.189s-.407-.063-.545-.189-.243-.326-.317-.601c-.073-.274-.123-.631-.148-1.071s-.037-.973-.037-1.6.012-1.158.037-1.593zm-32.811-1.528v-1.541h-4.218v9.325h4.323v-1.541h-2.801v-2.507h2.537v-1.541h-2.537v-2.194h2.695zm59.588-.34c.155 0 .287.05.397.15.109.1.199.227.269.379.071.152.121.32.153.503s.048.361.048.536h1.459c0-.949-.183-1.678-.55-2.188-.366-.509-.965-.764-1.797-.764-.486 0-.891.1-1.216.3-.324.2-.585.499-.782.895-.198.396-.337.89-.418 1.482s-.122 1.28-.122 2.064c0 .81.028 1.521.085 2.135.056.614.167 1.13.333 1.548.165.418.394.727.687.927.292.2.671.301 1.136.301.359 0 .667-.076.924-.229.257-.152.477-.412.661-.777h.021v.862h1.12v-5.028h-2.462v1.384h1.004v.954c0 .253-.032.472-.095.659s-.143.342-.237.464c-.095.122-.198.213-.307.274s-.21.091-.301.091c-.218 0-.396-.085-.534-.255-.137-.17-.243-.414-.317-.731-.074-.318-.125-.703-.154-1.156-.028-.453-.042-.958-.042-1.515 0-1.167.081-2.002.243-2.508.162-.505.426-.758.793-.758zm-11.15-1.201v9.325h1.522v-9.325zm7.631 9.325v-9.325h-1.395v6.386h-.021l-1.839-6.386h-1.755v9.325h1.395v-6.53h.021l1.86 6.53h1.733zm-13.454-2.912v.379c0 .862.185 1.524.555 1.985.37.462.984.692 1.844.692.824 0 1.467-.224 1.929-.673.461-.448.692-1.164.692-2.148 0-.288-.021-.549-.064-.784-.042-.235-.118-.451-.227-.646-.11-.196-.255-.379-.439-.548-.183-.17-.419-.333-.708-.49l-1.173-.627c-.324-.165-.536-.346-.634-.542-.099-.196-.148-.437-.148-.725 0-.139.012-.274.037-.405.025-.13.071-.246.138-.346s.157-.181.27-.242c.112-.061.254-.091.423-.091.296 0 .507.12.634.359s.19.581.19 1.025h1.459v-.261c0-.444-.058-.825-.175-1.143-.116-.318-.278-.579-.486-.784s-.454-.353-.74-.444c-.285-.091-.597-.137-.935-.137-.726 0-1.297.227-1.712.679-.416.453-.624 1.141-.624 2.063 0 .383.039.721.116 1.012.077.292.199.548.365.771.166.222.372.416.619.581.246.165.539.318.877.457.254.105.467.207.639.307.173.1.312.211.418.333.105.122.181.259.227.412.046.152.069.333.069.542 0 .392-.094.681-.28.868-.187.187-.396.281-.629.281-.197 0-.361-.035-.492-.104-.13-.07-.234-.165-.312-.287s-.13-.272-.159-.451c-.028-.178-.042-.376-.042-.594v-.274zm-36.896.405c.07-.644.106-1.363.106-2.155 0-.705-.027-1.356-.079-1.952-.053-.596-.169-1.108-.349-1.534s-.439-.76-.777-.999c-.338-.24-.793-.359-1.363-.359s-1.025.12-1.363.359-.597.572-.777.999-.296.938-.349 1.534c-.053.597-.079 1.247-.079 1.952 0 .714.027 1.367.079 1.959.053.592.169 1.101.349 1.528s.439.753.777.98c.338.226.793.34 1.363.34.387 0 .722-.048 1.004-.144l.898 1.11.898-1.006-.814-.98c.247-.444.405-.988.476-1.632zm-1.453-.555c-.025.44-.074.797-.148 1.071s-.18.475-.317.601c-.138.126-.319.189-.544.189s-.407-.063-.545-.189c-.137-.126-.243-.326-.317-.601-.074-.274-.124-.631-.148-1.071-.025-.44-.037-.973-.037-1.6s.012-1.158.037-1.593.074-.792.148-1.071.18-.481.317-.607c.138-.126.319-.189.545-.189s.407.063.544.189.243.329.317.607c.074.279.123.635.148 1.071.025.435.037.966.037 1.593s-.012 1.16-.037 1.6zm-5.287 5.802h-2.589v12.646h8.32v-2.338h-5.733v-10.308zm39.746 1.559c-.478-.52-1.044-.909-1.697-1.169-.654-.26-1.36-.39-2.117-.39h-5.075v12.646h5.075c.9 0 1.683-.162 2.348-.487.664-.325 1.219-.771 1.664-1.337.445-.567.777-1.24.996-2.019.22-.78.33-1.63.33-2.551 0-1.051-.135-1.966-.404-2.745-.27-.779-.643-1.428-1.121-1.948zm-1.31 6.73c-.165.484-.385.877-.659 1.178-.275.301-.588.517-.939.647-.352.13-.714.195-1.088.195h-2.306v-7.97h1.845c.637 0 1.172.097 1.607.292.433.195.782.475 1.046.841s.453.806.569 1.319c.115.514.173 1.089.173 1.727 0 .697-.083 1.287-.247 1.771zm7.48-1.08h5.701v-2.161h-5.701v-2.71h6.211v-2.338h-8.798v12.646h8.93v-2.338h-6.343zm18.082 3.985c-.027-.283-.047-.561-.058-.832s-.022-.508-.033-.708c-.022-.319-.063-.638-.123-.956-.061-.319-.157-.611-.288-.877-.132-.266-.302-.496-.511-.691s-.472-.339-.791-.434v-.036c.659-.283 1.134-.697 1.425-1.24s.437-1.187.437-1.931c0-.484-.08-.936-.239-1.355-.16-.419-.39-.788-.692-1.107-.303-.319-.665-.57-1.088-.753s-.898-.274-1.425-.274h-6.343v12.646h2.587v-4.941h2.587c.648 0 1.115.154 1.4.461.286.307.472.791.56 1.452.066.508.115 1.039.148 1.594s.121 1.033.264 1.435h2.587c-.121-.177-.211-.393-.272-.647s-.105-.522-.132-.806zm-2.974-5.898c-.296.283-.741.425-1.334.425h-2.834v-3.56h2.834c.593 0 1.038.139 1.334.416.297.277.445.723.445 1.337 0 .638-.149 1.098-.445 1.382zm-35.125 3.188h-.033l-4.91-8.484h-2.57v12.646h2.422v-8.466h.033l4.893 8.466h2.587v-12.646h-2.422zm-15.866-1.275h5.701v-2.161h-5.701v-2.71h6.211v-2.338h-8.8v12.646h8.93v-2.338h-6.343v-3.099z" fill="#fff"/></svg>