<svg height="220" viewBox="0 0 219 220" width="219" xmlns="http://www.w3.org/2000/svg" xmlns:xlink="http://www.w3.org/1999/xlink"><linearGradient id="a" gradientUnits="userSpaceOnUse" x1="20.548" x2="199.733" y1="109.611" y2="109.611"><stop offset="0" stop-color="#004217"/><stop offset=".058" stop-color="#004718"/><stop offset=".327" stop-color="#005e1e"/><stop offset=".497" stop-color="#006721"/><stop offset=".696" stop-color="#005c1b"/><stop offset="1" stop-color="#00450f"/></linearGradient><linearGradient id="b" gradientTransform="matrix(.95461536 -.29784142 .29784142 .95461536 -27.174 45.574)" gradientUnits="userSpaceOnUse" x1="22.418" x2="152.274" y1="102.028" y2="102.028"><stop offset="0" stop-color="#006a3b"/><stop offset=".076" stop-color="#107242"/><stop offset=".266" stop-color="#358451"/><stop offset=".42" stop-color="#4c8f5b"/><stop offset=".518" stop-color="#55945f"/><stop offset=".638" stop-color="#4a925b"/><stop offset=".844" stop-color="#2f8f53"/><stop offset="1" stop-color="#178d4c"/></linearGradient><circle cx="105.32" cy="112.27" fill="#dbf2f7" r="95.44"/><path d="m200.76 112.27c0-27.178-11.36-51.703-29.591-69.085l-128.212 40.411c-4.404 1.374-6.861 6.058-5.486 10.462l29.46 94.425c1.374 4.404 6.058 6.86 10.462 5.486l110.683-34.129c8.068-14.004 12.683-30.249 12.683-47.571z" fill="#a3c8d1" fill-rule="evenodd"/><rect fill="url(#a)" height="115.621" rx="8.354" transform="matrix(.95461536 -.29784142 .29784142 .95461536 -27.648 37.778)" width="179.184" x="20.549" y="51.8"/><path d="m119.709 92.327 3.017.68c9.703 2.166 16.948 7.969 17.205 13.849.355 7.668-10.397 15.558-29.515 21.633l-17.78 5.657c.12-2.776-1.133-5.387-3.76-7.767l-44.971-40.968c-5.084-4.635-9.886-8.37-14.369-11.21l-8.596 2.682c5.432 2.63 11.72 7.111 18.578 13.359l13.777 12.552c-2.466 1.295-4.101 3.712-4.862 7.17l-13.011 59.431c-.069.313-.126.613-.192.923l3.857 12.362c.17.544.391 1.056.647 1.543.358-4.044 1.064-8.531 2.131-13.419l3.998-18.229c2.347 1.481 5.24 1.696 8.609.623l57.988-18.443c8.454-2.681 15.38-5.697 20.737-9.033-.061.085-.129.15-.19.234-7.512 8.615-21.434 24.262-46.575 51.613l63.455-19.798c5.664-17.367 6.16-36.597.194-55.329-7.447-23.353-23.509-41.556-43.549-52.262l-74.082 23.113c15.192 3.073 41.765 8.725 87.261 19.035z" fill="url(#b)"/><rect fill="#e6e6e6" height="18.216" rx="2.426" transform="matrix(.95461536 -.29784142 .29784142 .95461536 -32.942 20.651)" width="24.4" x="39.092" y="109.312"/><path d="m115.38 54.454c-2.643.824-4.117 3.636-3.295 6.269s3.633 4.107 6.266 3.286 4.117-3.636 3.295-6.269-3.633-4.107-6.266-3.286" fill="#fff"/><path d="m122.337 62.016.077-.024c.058-.018.105-.001.129.076.015.048.017.121-.06.145l-.077.024zm.102.327.048-.015c.135-.042.149.038.179.134.015.048.033.106.067.148l.173-.054c-.028-.023-.076-.177-.091-.225-.045-.144-.163-.118-.202-.106.109-.055.124-.144.094-.24-.042-.135-.14-.178-.265-.139l-.327.102.246.788.183-.057zm-.144-.767c-.375.117-.58.508-.463.883s.511.589.886.472.577-.517.46-.892-.508-.58-.883-.463m.384 1.23c-.307.096-.626-.079-.719-.377-.096-.307.069-.623.377-.719.298-.093.623.069.719.377.093.298-.079.626-.377.719" fill="#f58025"/><path d="m119.561 59.17-1.028.321c.013-.162-.067-.316-.214-.45l-2.59-2.387c-.382-.345-.73-.616-1.048-.791.01-.003.013.007.022.004.787.155 2.369.495 5.418 1.209l.171.042c.567.129.978.465.99.809.014.449-.606.896-1.721 1.243m-2.455 3.961-.117.131c-.394.429-.894.616-1.196.458-.391-.205-.475-.98-.217-2.115l.24-1.056c.132.085.304.095.496.035l3.363-1.049c.49-.153.891-.32 1.21-.515l-.007.013c-.54.601-1.63 1.806-3.772 4.098m-3.731-5.637-.054-.173c-.171-.548-.084-1.081.206-1.266.38-.235 1.078.075 1.935.862l.798.732c-.145.077-.24.212-.282.415l-.773 3.436c-.118.501-.161.936-.153 1.302l-.006-.019c-.263-.741-.765-2.282-1.671-5.289m1.935-3.261c-2.758.86-4.298 3.798-3.438 6.556s3.798 4.298 6.556 3.438 4.298-3.798 3.438-6.556-3.798-4.298-6.556-3.438" fill="#f58025"/><g fill="#fff"><path d="m125.92 52.409-3.277 1.022-.077.024.102.327.07-.011c1.217-.222 1.381-.104 1.566.492l1.937 6.208 1.326-.414-1.007-3.229.538-.168c1.259-.393 3.892-1.214 3.238-3.309-.66-2.114-3.1-1.353-4.417-.942m.97 3.683-.509.159-.753-2.412c-.177-.567-.204-.653.872-.989 1.211-.378 2.054-.04 2.363.95.42 1.345-.763 1.915-1.974 2.292"/><path d="m137.194 48.902-.778.243 1.808 5.794c-.292-.225-5.959-4.499-5.959-4.499l-2.816.878.102.327.07-.011c1.188-.213 1.351-.2 1.605.617l1.895 6.073.855-.267-1.943-6.227c.301.222 6.421 4.83 6.421 4.83l1.144-.357-2.318-7.428z"/><path d="m139.372 52.03c.633 2.028 2.511 3.688 5.269 2.827 1.316-.411 1.915-.756 2.46-1.105l.052-.037-.189-.605-.097.062c-.58.371-1.184.665-1.684.821-2.21.69-3.667-.195-4.437-2.696-.522-1.672-.036-2.92 1.29-3.334.894-.279 1.53-.098 1.881.552l.028.055 1.461-.456-.037-.083c-.168-.369-.919-1.527-3.456-.735-2.428.768-3.283 2.353-2.54 4.736"/><path d="m152.47 47.943c.587-.415 1.044-1.116.756-2.039-.567-1.816-2.729-1.142-3.44-.92l-3.767 1.175-.077.024.102.327.316-.035c.836-.092 1.292-.15 1.511.551l1.91 6.121 2.239-.699c.923-.288 3.382-1.055 2.747-3.093-.311-1.031-1.104-1.511-2.297-1.413m-3.365-1.323c-.207-.663-.228-.73.599-.988 1.182-.369 1.893-.116 2.172.777.369 1.182-.762 1.682-1.646 1.958l-.529.165-.597-1.912zm2.691 5.245q-.961.3-1.213-.507l-.702-2.249.529-.165c.75-.234 2.489-.777 2.986.819.312.968-.236 1.676-1.601 2.102"/><path d="m157.268 42.639-.048.015-2.21.69.099.317.061-.008c.676-.063.972-.061 1.038.151.048.154.024.383-.008.582l-.004.022-.717 6.93.951-.297s.216-2.619.225-2.727l3.037-.947c.065.074 1.803 2.095 1.803 2.095l1.374-.429-5.601-6.393zm-.546 5.042c.02-.207.324-3.117.362-3.435.202.243 2.098 2.467 2.232 2.625l-2.595.809z"/><path d="m171.585 46.313 1.23-.384-1.085-3.479c.29.152 4.554 2.396 4.554 2.396l1.285-.411-5.22-2.705 2.883-4.685-.183.057-.192.06-.951.297s-2.326 3.731-2.478 3.989c-.084-.269-.911-2.921-.911-2.921l-2.45.765.096.307.131-.02c1.054-.171 1.149-.169 1.386.59l1.906 6.143z" fill-rule="evenodd"/><path d="m167.548 39.39-.778.243 1.811 5.804c-.292-.225-5.962-4.509-5.962-4.509l-2.816.878.105.336.07-.011c1.191-.203 1.351-.2 1.605.617l1.898 6.083.855-.267-1.946-6.236c.301.222 6.424 4.839 6.424 4.839l1.144-.357-2.324-7.447z"/><path d="m87.137 43.134-4.172-13.429" stroke="#566875" stroke-linecap="round" stroke-miterlimit="10" stroke-width="2.5"/><path d="m74.72 44.231-2.51-3.422" stroke="#566875" stroke-linecap="round" stroke-miterlimit="10" stroke-width="2.5"/><path d="m66.054 53.046-8.676-6.019" stroke="#566875" stroke-linecap="round" stroke-miterlimit="10" stroke-width="2.5"/><path d="m113.444 30.597-3.32 8.762" stroke="#566875" stroke-linecap="round" stroke-miterlimit="10" stroke-width="2.5"/><path d="m98.119 32.763-.13 4.244" stroke="#566875" stroke-linecap="round" stroke-miterlimit="10" stroke-width="2.5"/></g></svg>