<svg height="464" viewBox="0 0 420 464" width="420" xmlns="http://www.w3.org/2000/svg" xmlns:xlink="http://www.w3.org/1999/xlink"><linearGradient id="a" gradientUnits="userSpaceOnUse" x1="32.853" x2="387.781" y1="325.532" y2="325.532"><stop offset="0" stop-color="#e05619"/><stop offset=".624" stop-color="#fbb040"/><stop offset="1" stop-color="#fcd8a6"/></linearGradient><linearGradient id="b" gradientUnits="userSpaceOnUse" x1="32.853" x2="369.397" y1="293.205" y2="293.205"><stop offset="0" stop-color="#e67844"/><stop offset=".624" stop-color="#f9b55e"/><stop offset=".997" stop-color="#fdddaf"/></linearGradient><circle cx="191.617" cy="134.896" fill="#fff" opacity=".6" r="121.058"/><path d="m191.616 268.953c-73.92 0-134.058-60.138-134.058-134.058s60.139-134.057 134.058-134.057 134.058 60.138 134.058 134.058-60.138 134.058-134.058 134.058zm0-242.115c-59.583 0-108.058 48.475-108.058 108.058s48.475 108.058 108.058 108.058 108.058-48.475 108.058-108.058-48.475-108.058-108.058-108.058z" fill="#81b1d6"/><circle cx="191.617" cy="134.896" fill="#fff" opacity=".5" r="121.058"/><path d="m125.358 460.283-117.977-68.114c-7.391-4.267-11.576-22.29 2.079-30.1l256.864-134.917c8.534-4.927 21.563-5.467 28.954-1.2l117.977 54.733c10.4 5.48 6.456 25.171-2.079 30.1l-256.863 148.3c-8.535 4.925-21.564 5.466-28.955 1.198z" fill="#32495a"/><path d="m125.357 456.079-117.977-68.114c-7.391-4.267-11.576-22.29 2.079-30.098l256.864-134.92c8.534-4.927 21.564-5.467 28.955-1.2l117.977 54.733c10.405 5.48 6.455 25.171-2.079 30.098l-256.864 148.3c-8.534 4.927-21.564 5.467-28.955 1.2z" fill="#81b1d6"/><path d="m125.357 449.388-117.977-68.114c-7.391-4.267-8.705-17.83 2.079-23.408l256.864-141.609c8.534-4.927 21.564-5.467 28.955-1.2l117.977 61.424c8.983 4.839 6.455 18.48-2.079 23.407l-256.864 148.3c-8.534 4.927-21.564 5.467-28.955 1.2z" fill="#cae8f6"/><path d="m125.357 442.698-117.977-68.114c-7.391-4.267-6.455-11.79 2.079-16.717l256.864-148.301c8.534-4.927 21.564-5.467 28.955-1.2l117.977 68.114c7.391 4.267 6.455 11.79-2.079 16.717l-256.864 148.3c-8.534 4.927-21.564 5.467-28.955 1.2z" fill="#fff"/><path d="m163.221 427.991-130.368-75.268 224.56-129.65 130.368 75.268z" fill="url(#a)"/><path d="m257.413 223.073-224.56 129.65 18.384 10.614 318.16-75.61z" fill="url(#b)"/><ellipse cx="82.203" cy="399.499" fill="#cae8f6" rx="8.253" ry="14.295" transform="matrix(.00542795 -.99998527 .99998527 .00542795 -317.736 479.534)"/><path d="m350.636 260.83c-.738 0-1.418-.158-1.916-.445l-25.231-14.567c-.555-.321-.861-.782-.861-1.299 0-.599.419-1.184 1.15-1.607.674-.389 1.566-.612 2.448-.612.738 0 1.418.158 1.916.446l25.231 14.567c.555.321.861.782.861 1.299 0 .599-.419 1.184-1.15 1.606-.674.389-1.566.612-2.448.612z" fill="#cae8f6"/><path d="m323.779 243.916c.674-.389 1.566-.612 2.448-.612.738 0 1.418.158 1.916.446l25.231 14.567c.369.213.625.489.757.802.066-.165.104-.335.104-.506 0-.517-.306-.979-.861-1.299l-25.231-14.567c-.497-.287-1.178-.446-1.916-.446-.882 0-1.774.223-2.448.612-.731.422-1.15 1.008-1.15 1.607 0 .173.037.34.104.497.165-.413.524-.799 1.046-1.1z" fill="#81b1d6"/><path d="m72.152 421.683-11.568-6.709c-.987-.57-1.795-2.114-1.795-3.43 0-1.316.808-1.927 1.795-1.357l11.568 6.709c.987.57 1.795 2.113 1.795 3.43 0 1.316-.808 1.927-1.795 1.357z" fill="#0069aa"/><path d="m73.947 420.326c0-1.316-.808-2.86-1.795-3.43l-9.919-5.727c0 .02-.002.038-.002.058 0 1.316.808 2.86 1.795 3.43l9.92 5.727c0-.02.002-.038.002-.058z" fill="#274059"/><path d="m187.12 307.041c0-2.479 2.01-4.5 4.5-4.5 2.479 0 4.5 2.021 4.5 4.5 0 2.49-2.021 4.5-4.5 4.5-2.49 0-4.5-2.01-4.5-4.5zm0-19.18c0-2.49 2.01-4.5 4.5-4.5 2.479 0 4.5 2.01 4.5 4.5 0 2.479-2.021 4.49-4.5 4.49-2.49 0-4.5-2.011-4.5-4.49zm0-19.19c0-2.489 2.01-4.5 4.5-4.5 2.479 0 4.5 2.011 4.5 4.5 0 2.48-2.021 4.5-4.5 4.5-2.49 0-4.5-2.02-4.5-4.5zm0-19.189c0-2.48 2.01-4.5 4.5-4.5 2.479 0 4.5 2.02 4.5 4.5 0 2.49-2.021 4.5-4.5 4.5-2.49 0-4.5-2.01-4.5-4.5zm0-19.18c0-2.49 2.01-4.51 4.5-4.51 2.479 0 4.5 2.02 4.5 4.51 0 2.48-2.021 4.49-4.5 4.49-2.49 0-4.5-2.01-4.5-4.49z" fill="#0069aa"/><circle cx="191.827" cy="103.652" fill="#fff" r="37.213"/><g fill="#0069aa"><path d="m154.417 160.394h-15.951v1.547l.312.037c5.554.677 6.114 1.405 6.114 4.235v29.51h6.323v-15.339h2.549c6.009 0 18.508 0 18.508-9.969.01-10.022-11.611-10.022-17.853-10.022m-.776 17.275h-2.418v-11.456c0-2.688 0-3.099 5.133-3.099 5.765 0 8.945 2.597 8.945 7.302 0 6.389-5.893 7.25-11.659 7.25"/><path d="m208.038 160.4h-3.717v27.544c-.982-1.367-19.769-27.541-19.769-27.541h-13.411v1.541l.312.043c5.428.707 6.12.945 6.12 4.847v28.9h4.07v-29.627c.988 1.367 21.316 29.621 21.316 29.621h5.439v-35.329h-.359z"/><path d="m213.238 176.905c0 9.647 5.888 19.378 19.041 19.378 4.108.12 8.211-.37 12.176-1.452l.264-.069v-2.898l-.487.132c-2.738.771-5.562 1.195-8.406 1.262-10.507 0-15.619-5.782-15.619-17.689 0-7.951 3.781-12.703 10.122-12.703 4.251 0 6.743 1.668 7.414 4.958l.058.285h6.965l-.053-.401c-.238-1.848-1.943-7.873-13.993-7.873-11.595 0-17.483 5.745-17.483 17.071"/></g><path d="m224.405 142.609c-2.432.017-4.417-1.94-4.435-4.372s1.94-4.417 4.372-4.435 4.417 1.94 4.435 4.372v.018c.003 2.423-1.949 4.395-4.372 4.417m0-9.816c-2.993-.016-5.433 2.397-5.449 5.39s2.397 5.433 5.39 5.449 5.433-2.397 5.449-5.39c0-.017 0-.033 0-.05.009-2.973-2.394-5.391-5.368-5.399-.008 0-.015 0-.023 0m-.677 5.927h.36c1.106 0 .992.64.992 1.379-.033.415.03.832.184 1.219h1.396c-.124-.606-.177-1.225-.158-1.844.04-.634-.441-1.18-1.074-1.22-.051-.003-.103-.003-.154 0v-.027c.756-.054 1.324-.711 1.27-1.466-.002-.023-.004-.047-.007-.07.093-.82-.495-1.56-1.315-1.653-.094-.011-.188-.012-.283-.005h-2.625v6.281h1.423v-2.597zm0-2.643h.641c.452 0 .737.237.737.825 0 .404-.176.93-.737.93h-.641v-1.756z" fill="#f48024"/><path d="m211.691 109.341h-8.289c.411-1.281.21-2.679-.544-3.793l-13.512-23.407c-1.626-2.945-3.605-5.68-5.892-8.147.044.026.079.043.113.061 5.408 2.958 16.217 9.061 36.921 21.227l1.193.693c3.82 2.23 6.103 5.663 5.42 8.182-.878 3.301-6.497 5.194-15.409 5.194m-26.972 23.337-1.177.677c-3.828 2.203-7.945 2.458-9.789.605-2.406-2.414-1.242-8.226 3.221-15.935l4.145-7.182c.904.995 2.215 1.519 3.555 1.422h27.025c3.359.058 6.713-.284 9.991-1.016-.035.018-.07.036-.113.062-5.277 3.195-15.971 9.526-36.858 21.37m-14.482-49.708.009-1.355c.018-4.417 1.853-8.121 4.372-8.789 3.301-.878 7.735 3.049 12.194 10.756l4.145 7.164c-1.315.291-2.424 1.167-3.011 2.379l-13.513 23.416c-1.733 2.876-3.113 5.95-4.109 9.157v-.131c-.14-6.173-.263-18.578-.088-42.6m21.59-19.473c-22.169 0-40.141 17.972-40.141 40.141s17.972 40.141 40.141 40.141 40.141-17.972 40.141-40.141c-.001-22.169-17.972-40.14-40.141-40.141" fill="#f48024"/></svg>